<?xml version="1.0" encoding="UTF-8"?>
<svg version="1.1" xmlns="https://www.w3.org/2000/svg" width="513" height="458">
<path d="M0 0 C1.94847808 0.46149438 3.89952969 0.9120786 5.85058594 1.36254883 C23.91109687 5.60292234 41.88975073 10.21785873 52.92871094 26.35668945 C54.21837215 28.15439902 55.6143026 29.63448682 57.21777344 31.15356445 C57.641875 30.57348633 58.06597656 29.9934082 58.50292969 29.39575195 C62.32593668 24.30401078 66.08998386 19.93884219 71.21777344 16.15356445 C71.99636719 15.57735352 72.77496094 15.00114258 73.57714844 14.4074707 C85.08919642 6.4886803 98.50006314 3.72008585 111.84277344 0.27856445 C113.07697021 -0.0443457 114.31116699 -0.36725586 115.58276367 -0.69995117 C116.75395752 -0.99321289 117.92515137 -1.28647461 119.13183594 -1.58862305 C120.18322754 -1.85529785 121.23461914 -2.12197266 122.31787109 -2.39672852 C125.33516841 -2.86464076 127.31260056 -2.73999341 130.21777344 -1.84643555 C132.09277344 -0.09643555 132.09277344 -0.09643555 133.21777344 2.15356445 C133.10502723 6.55066647 131.06394513 8.9401448 128.21777344 12.15356445 C129.16652344 12.60731445 130.11527344 13.06106445 131.09277344 13.52856445 C144.24083851 21.10270336 151.31269165 33.99513971 155.21777344 48.15356445 C161.97527736 77.31168499 151.94737632 108.34130863 136.71777344 133.02856445 C133.71767991 137.59422403 130.39541925 141.85016599 126.91699219 146.05981445 C125.08838855 148.24622606 125.08838855 148.24622606 123.21777344 151.15356445 C123.91902344 151.37915039 124.62027344 151.60473633 125.34277344 151.8371582 C128.83243367 153.43500535 131.43134937 155.63508088 134.21777344 158.21606445 C134.74741699 158.70486084 135.27706055 159.19365723 135.82275391 159.69726562 C140.02078784 163.70459817 142.97401211 167.76642051 145.21777344 173.15356445 C145.67152344 174.18481445 146.12527344 175.21606445 146.59277344 176.27856445 C147.39006855 179.94612199 147.15882207 182.52380544 146.21777344 186.15356445 C144.53027344 188.59106445 144.53027344 188.59106445 142.21777344 190.15356445 C139.21777344 190.65356445 139.21777344 190.65356445 136.21777344 190.15356445 C132.45572388 187.11127586 130.86964182 183.63861837 128.90527344 179.27856445 C125.51383683 172.15434535 122.28714188 167.87522033 114.96777344 164.77856445 C110.02162803 163.95420688 105.21878601 163.99078285 100.21777344 164.15356445 C99.88777344 163.49356445 99.55777344 162.83356445 99.21777344 162.15356445 C98.86714844 161.55543945 98.51652344 160.95731445 98.15527344 160.34106445 C96.99501571 157.63379643 96.85229507 156.08599086 97.21777344 153.15356445 C99.11621094 150.6965332 99.11621094 150.6965332 101.59277344 148.34106445 C102.8109375 147.15577148 102.8109375 147.15577148 104.05371094 145.9465332 C106.21777344 144.15356445 106.21777344 144.15356445 108.21777344 144.15356445 C108.47171875 143.57735352 108.72566406 143.00114258 108.98730469 142.4074707 C110.35473501 139.90268563 111.93986084 138.15687141 113.90527344 136.09106445 C132.67555429 115.31816774 139.66649922 87.43459387 141.21777344 60.15356445 C140.22777344 59.82356445 139.23777344 59.49356445 138.21777344 59.15356445 C138.87777344 59.15356445 139.53777344 59.15356445 140.21777344 59.15356445 C137.83468929 45.53317296 134.50316517 36.39124503 123.15527344 28.02856445 C114.59843446 22.53686182 105.10988796 21.0442165 95.21777344 23.15356445 C85.86020356 25.76071871 78.06960456 30.69315282 72.90527344 39.02856445 C70.38500833 43.60575901 68.20200731 48.32137137 66.21777344 53.15356445 C62.55410242 53.53070706 58.88857675 53.85410418 55.21777344 54.15356445 C54.42371094 54.23348633 53.62964844 54.3134082 52.81152344 54.39575195 C50.71777344 54.52856445 50.71777344 54.52856445 47.21777344 54.15356445 C44.77040622 50.80357913 43.40705939 47.20787848 41.96777344 43.34106445 C38.24601877 34.35142559 33.5395122 29.10620965 24.62402344 25.1184082 C14.5668249 21.08573282 5.24780496 20.91439643 -4.78222656 25.15356445 C-13.79176199 29.82571449 -19.51964689 36.68253288 -23.02832031 46.1809082 C-25.82445071 57.20606486 -25.74486551 68.51734671 -20.65722656 78.77856445 C-16.03137276 86.52889845 -9.27555913 91.31737081 -0.78222656 94.15356445 C10.08684935 96.76986867 20.09952676 95.3863389 29.69433594 89.6809082 C38.68124453 83.32394778 41.79538175 75.42073953 45.21777344 65.15356445 C53.13777344 65.15356445 61.05777344 65.15356445 69.21777344 65.15356445 C76.86324244 84.26723695 76.86324244 84.26723695 75.21777344 89.15356445 C73.659081 91.58825321 71.86707422 93.79927974 70.03027344 96.02856445 C69.53140625 96.64554199 69.03253906 97.26251953 68.51855469 97.89819336 C67.5340743 99.111809 66.54542912 100.3220604 65.55224609 101.52856445 C64.4410154 102.8817206 63.3484585 104.25018529 62.26074219 105.62231445 C60.71777344 107.52856445 60.71777344 107.52856445 58.21777344 110.15356445 C57.22777344 110.15356445 56.23777344 110.15356445 55.21777344 110.15356445 C54.19639887 108.49991039 53.20165049 106.82979944 52.21777344 105.15356445 C51.27768253 103.99571237 50.29590799 102.87075437 49.28027344 101.77856445 C48.796875 101.25520508 48.31347656 100.7318457 47.81542969 100.19262695 C46.26324499 98.95104259 46.26324499 98.95104259 44.28417969 99.3137207 C41.93840731 100.26710645 40.13894316 101.4748522 38.09277344 102.96606445 C26.20809578 111.12452304 12.92766837 112.73330505 -1.14550781 110.6574707 C-9.04178349 108.84470703 -16.05306607 105.63967145 -22.78222656 101.15356445 C-21.80275412 115.5191603 -12.27919761 132.39219945 -2.25097656 142.5168457 C-0.78222656 144.15356445 -0.78222656 144.15356445 -0.78222656 146.15356445 C0.20777344 146.48356445 1.19777344 146.81356445 2.21777344 147.15356445 C2.87777344 147.83418945 3.53777344 148.51481445 4.21777344 149.21606445 C18.54884947 163.92761154 40.83299163 172.96923734 61.21777344 174.15356445 C67.24766777 174.17251185 73.2767614 174.03188406 79.30371094 173.85083008 C80.51800781 173.83342773 81.73230469 173.81602539 82.98339844 173.7980957 C84.08458008 173.77078369 85.18576172 173.74347168 86.3203125 173.71533203 C89.91934935 174.25967574 91.0594313 175.27074608 93.21777344 178.15356445 C93.79711378 182.1365293 93.72116984 184.29460451 91.67480469 187.78637695 C88.47741134 190.86685448 85.66047999 191.23976414 81.40527344 191.59106445 C80.62627686 191.66470215 79.84728027 191.73833984 79.04467773 191.81420898 C50.74548547 193.93879796 20.91760768 185.80917734 -0.78222656 167.15356445 C-1.98105469 166.13649414 -1.98105469 166.13649414 -3.20410156 165.09887695 C-13.6653962 155.96961051 -22.01234421 146.30426043 -28.78222656 134.15356445 C-29.60013672 132.6859668 -29.60013672 132.6859668 -30.43457031 131.1887207 C-43.97837658 105.51407523 -48.18421652 70.17149065 -39.78222656 42.15356445 C-36.02241674 30.26174172 -29.34148883 21.95704385 -19.78222656 14.15356445 C-19.45222656 13.49356445 -19.12222656 12.83356445 -18.78222656 12.15356445 C-19.44222656 12.15356445 -20.10222656 12.15356445 -20.78222656 12.15356445 C-20.78222656 11.49356445 -20.78222656 10.83356445 -20.78222656 10.15356445 C-21.42160156 9.86481445 -22.06097656 9.57606445 -22.71972656 9.27856445 C-24.78222656 8.15356445 -24.78222656 8.15356445 -25.78222656 6.15356445 C-25.91638129 3.48120236 -25.82541197 0.83105957 -25.78222656 -1.84643555 C-18.30270212 -6.13896906 -7.87119599 -1.86789084 0 0 Z " fill="#246FD4" transform="translate(198.7822265625,105.846435546875)"/>
<path d="M0 0 C1.67450649 0.60673784 3.34915219 1.21309163 5.02392578 1.8190918 C9.69828659 3.51252764 14.36967787 5.21403513 19.04071045 6.91662598 C22.38714651 8.13519941 25.73470326 9.35065346 29.08251953 10.56542969 C35.06307673 12.73557819 41.0423547 14.90921306 47.02059937 17.08572388 C49.38397662 17.94600941 51.74760438 18.80560705 54.11148071 19.66452026 C57.43735511 20.87373523 60.76183666 22.08670071 64.0859375 23.30078125 C65.59880089 23.84984634 65.59880089 23.84984634 67.14222717 24.41000366 C68.05870529 24.7456131 68.97518341 25.08122253 69.91943359 25.42700195 C70.72335541 25.72008743 71.52727722 26.01317291 72.3555603 26.31513977 C74.1875 27.0625 74.1875 27.0625 75.1875 28.0625 C75.36026682 30.99438732 75.47159827 33.90494451 75.5390625 36.83984375 C75.57379166 38.162369 75.57379166 38.162369 75.60922241 39.51161194 C75.65693431 41.3803212 75.70215939 43.24909533 75.74511719 45.11791992 C75.81213661 47.98445724 75.88990578 50.85056326 75.96875 53.71679688 C76.01367106 55.52862983 76.05796287 57.34047852 76.1015625 59.15234375 C76.13740952 60.44458107 76.13740952 60.44458107 76.17398071 61.76292419 C76.30237646 67.83274707 76.30237646 67.83274707 75.1875 70.0625 C71.5575 70.0625 67.9275 70.0625 64.1875 70.0625 C63.98995532 65.521212 63.80623115 60.97946597 63.625 56.4375 C63.56892578 55.15230469 63.51285156 53.86710937 63.45507812 52.54296875 C63.40673828 51.29902344 63.35839844 50.05507812 63.30859375 48.7734375 C63.2614624 47.63181152 63.21433105 46.49018555 63.16577148 45.31396484 C63.1871481 42.11515814 63.57110955 39.19633696 64.1875 36.0625 C63.10202881 36.37268066 62.01655762 36.68286133 60.89819336 37.00244141 C49.91071543 40.11451189 38.87450019 42.86468543 27.75 45.4375 C14.92917734 48.42095788 2.16232361 51.52351594 -10.52709961 55.03076172 C-12.02768921 55.43512451 -12.02768921 55.43512451 -13.55859375 55.84765625 C-14.41122803 56.08363525 -15.2638623 56.31961426 -16.14233398 56.56274414 C-22.10205275 57.67818204 -27.54317692 56.8891024 -33.35253906 55.42602539 C-34.07050659 55.25206741 -34.78847412 55.07810944 -35.52819824 54.89888 C-37.88012475 54.32698011 -40.22906915 53.74372473 -42.578125 53.16015625 C-44.21986863 52.75832046 -45.86177819 52.35716202 -47.50384521 51.95664978 C-51.81164743 50.90385515 -56.11696233 49.84121109 -60.421875 48.77667236 C-63.94128103 47.90812812 -67.46237659 47.04655885 -70.98358536 46.18535709 C-75.18231402 45.15835833 -79.38034582 44.12852843 -83.578125 43.09765625 C-84.37891731 42.90100939 -85.17970963 42.70436253 -86.00476837 42.50175667 C-88.26689817 41.94545956 -90.52855511 41.38728524 -92.79003906 40.82836914 C-93.79529633 40.58129211 -93.79529633 40.58129211 -94.82086182 40.32922363 C-97.52611091 39.65876525 -100.16668518 38.94443827 -102.8125 38.0625 C-103.1425 38.7225 -103.4725 39.3825 -103.8125 40.0625 C-103.8125 39.0725 -103.8125 38.0825 -103.8125 37.0625 C-104.49054688 36.95292969 -105.16859375 36.84335938 -105.8671875 36.73046875 C-120.4427521 34.24737395 -120.4427521 34.24737395 -126.8125 31.0625 C-126.8125 30.4025 -126.8125 29.7425 -126.8125 29.0625 C-125.84272217 28.72436279 -124.87294434 28.38622559 -123.8737793 28.0378418 C-112.73041698 24.13687758 -101.6492731 20.07754782 -90.58013916 15.97125244 C-85.52704251 14.09673174 -80.47242744 12.22631302 -75.41796875 10.35546875 C-73.92324036 9.80203796 -73.92324036 9.80203796 -72.39831543 9.23742676 C-62.55585819 5.59446306 -52.7033622 1.97920278 -42.84692383 -1.62573242 C-41.75532959 -2.0251001 -40.66373535 -2.42446777 -39.5390625 -2.8359375 C-38.53907227 -3.19526367 -37.53908203 -3.55458984 -36.50878906 -3.92480469 C-34.84421751 -4.54999871 -33.19466563 -5.21956069 -31.57714844 -5.95800781 C-21.59514407 -10.43742615 -9.64523257 -3.51916721 0 0 Z " fill="#216ED5" transform="translate(279.8125,53.9375)"/>
<path d="M0 0 C0 22.77 0 45.54 0 69 C-4.95 69 -9.9 69 -15 69 C-15.33 56.13 -15.66 43.26 -16 30 C-19.86221109 38.74925294 -19.86221109 38.74925294 -23.71826172 47.5012207 C-24.20053223 48.59007568 -24.68280273 49.67893066 -25.1796875 50.80078125 C-25.67194824 51.91622314 -26.16420898 53.03166504 -26.67138672 54.1809082 C-28 57 -28 57 -30 60 C-32.6015625 60.29296875 -32.6015625 60.29296875 -35.625 60.1875 C-37.12933594 60.14689453 -37.12933594 60.14689453 -38.6640625 60.10546875 C-39.43492187 60.07066406 -40.20578125 60.03585937 -41 60 C-41.51949219 58.88882813 -42.03898437 57.77765625 -42.57421875 56.6328125 C-43.27843193 55.13010807 -43.98287416 53.62751097 -44.6875 52.125 C-45.05037109 51.3501123 -45.41324219 50.57522461 -45.78710938 49.77685547 C-48.14794019 44.7543242 -50.58962568 39.78800941 -53.1875 34.8828125 C-54 33 -54 33 -54 30 C-54.66 30 -55.32 30 -56 30 C-55.67 42.87 -55.34 55.74 -55 69 C-59.95 69 -64.9 69 -70 69 C-70 46.23 -70 23.46 -70 0 C-63.73 0 -57.46 0 -51 0 C-49.02002189 4.60632326 -47.04305736 9.21371204 -45.07348633 13.82446289 C-44.40300937 15.39160766 -43.73082618 16.95802362 -43.05688477 18.52368164 C-42.08677595 20.77820021 -41.12289491 23.03529481 -40.16015625 25.29296875 C-39.85908463 25.98899704 -39.558013 26.68502533 -39.24781799 27.40214539 C-37.75876125 30.91100409 -36.56604558 34.2231648 -36 38 C-35.34 38 -34.68 38 -34 38 C-33.87923096 37.28231445 -33.75846191 36.56462891 -33.6340332 35.82519531 C-32.98637819 32.93930243 -32.04802746 30.50023904 -30.85546875 27.796875 C-30.21061523 26.32541016 -30.21061523 26.32541016 -29.55273438 24.82421875 C-29.10220703 23.80972656 -28.65167969 22.79523438 -28.1875 21.75 C-27.74857422 20.75097656 -27.30964844 19.75195312 -26.85742188 18.72265625 C-25.99054595 16.7518982 -25.120657 14.78246236 -24.24755859 12.81445312 C-23.43299184 10.97681602 -22.62320042 9.13705264 -21.81884766 7.29492188 C-21.46226074 6.48087891 -21.10567383 5.66683594 -20.73828125 4.828125 C-20.42544189 4.11043945 -20.11260254 3.39275391 -19.7902832 2.65332031 C-19 1 -19 1 -18 0 C-15.73493088 -0.26372085 -13.46196727 -0.46103223 -11.1875 -0.625 C-9.32158203 -0.76808594 -9.32158203 -0.76808594 -7.41796875 -0.9140625 C-4 -1 -4 -1 0 0 Z " fill="#1D67CC" transform="translate(309,324)"/>
<path d="M0 0 C9.69577068 6.23299544 14.54052306 13.7494696 17 25 C18.16871945 35.35521713 16.87605881 44.76853926 12.5 54.25 C11.70613273 56.9200517 11.70613273 56.9200517 12.9921875 58.6953125 C14.51184127 60.59626695 14.51184127 60.59626695 17 63 C15.58426179 66.39187279 13.95769034 68.09697541 11 70.25 C9.948125 71.03117187 9.948125 71.03117187 8.875 71.828125 C7 73 7 73 5 73 C5 72.34 5 71.68 5 71 C4.34 71 3.68 71 3 71 C1.375 68.5 1.375 68.5 0 66 C-1.72476563 66.47953125 -1.72476563 66.47953125 -3.484375 66.96875 C-14.07234686 69.59479051 -24.91373845 69.41643482 -34.4765625 63.8359375 C-42.88596615 57.71764073 -47.45877707 49.86139016 -49.375 39.75 C-50.66542937 29.79525915 -48.82555635 20.77066032 -44 12 C-43.66355469 11.37351562 -43.32710938 10.74703125 -42.98046875 10.1015625 C-34.5742106 -3.50291182 -13.67380687 -7.24507677 0 0 Z M-28.75 16.875 C-33.63393396 23.65824162 -34.66239036 30.84995938 -33.5 39.0625 C-32.10882062 45.1703492 -28.3769091 49.86867213 -23.09375 53.203125 C-20.57841587 54.16045366 -18.56167155 54.26603983 -15.875 54.25 C-14.57175781 54.25773437 -14.57175781 54.25773437 -13.2421875 54.265625 C-10.79796113 54.2106341 -10.79796113 54.2106341 -9 52 C-9.66 52 -10.32 52 -11 52 C-11.28875 51.38125 -11.5775 50.7625 -11.875 50.125 C-12.93720042 47.86674235 -12.93720042 47.86674235 -15 46 C-14.89834392 42.23872509 -14.00920966 41.01010816 -11.4375 38.1875 C-10.633125 37.465625 -9.82875 36.74375 -9 36 C-7.87411986 36.95729916 -6.7493285 37.91587895 -5.625 38.875 C-4.99851562 39.40867187 -4.37203125 39.94234375 -3.7265625 40.4921875 C-2.44163349 41.61432007 -1.20628025 42.79371975 0 44 C2.18291838 37.45124487 2.03863064 28.06315123 -0.0625 21.4375 C-2.90837723 16.38836297 -6.45236698 12.84921101 -12 11 C-19.26874973 10.52336067 -23.51312158 11.40008165 -28.75 16.875 Z " fill="#216ACD" transform="translate(423,326)"/>
<path d="M0 0 C0.33 0.66 0.66 1.32 1 2 C5.64586892 1.51515724 5.64586892 1.51515724 10 0 C12.04470249 1.66736408 12.92566921 2.52497566 13.34057617 5.17651367 C13.32486572 5.99869385 13.30915527 6.82087402 13.29296875 7.66796875 C13.28330078 8.56064453 13.27363281 9.45332031 13.26367188 10.37304688 C13.23853516 11.30181641 13.21339844 12.23058594 13.1875 13.1875 C13.16719727 14.59805664 13.16719727 14.59805664 13.14648438 16.03710938 C13.11113096 18.35865038 13.06178674 20.67903653 13 23 C13.53689453 22.72212646 14.07378906 22.44425293 14.62695312 22.15795898 C15.33787109 21.79516846 16.04878906 21.43237793 16.78125 21.05859375 C17.48314453 20.69822021 18.18503906 20.33784668 18.90820312 19.96655273 C23.43271502 17.87591985 27.30201958 17.54469094 32 19.0625 C37.94588124 21.63213472 42.40672102 25.24339192 45.375 31.0625 C49.11925386 40.63294198 48.87312214 50.95621668 45.03125 60.375 C42.23600372 66.11658696 38.84231658 69.39825266 33 72 C27.40646076 73.72790519 21.91219243 73.78536475 16.5 71.5625 C14 70 14 70 13 69 C12.67 69.99 12.34 70.98 12 72 C7.05 72 2.1 72 -3 72 C-3 49.23 -3 26.46 -3 3 C-2.01 2.67 -1.02 2.34 0 2 C0 1.34 0 0.68 0 0 Z M15 35 C11.91269621 39.99248011 11.36418087 45.27762779 12 51 C13.35032086 54.28387889 14.70834529 57.35417265 18 59 C22.35175823 59.35670149 24.93130814 59.5111135 28.875 57.625 C32.0128239 53.7488646 32.72661239 49.92836583 33 45 C32.52640839 40.79422372 31.3679397 37.55190955 29 34 C27.68 34.33 26.36 34.66 25 35 C25 34.01 25 33.02 25 32 C20.49348778 32 18.70178099 32.47963847 15 35 Z " fill="#1F68CC" transform="translate(184,321)"/>
<path d="M0 0 C2.90304044 2.38464036 3.20589903 4.81016021 3.75 8.4375 C1.76819281 13.42309161 -1.24672657 17.09801914 -4.75 21.0625 C-5.27682373 21.66860107 -5.80364746 22.27470215 -6.34643555 22.89916992 C-10.7233364 27.90909632 -15.23854686 32.78635102 -19.765625 37.66015625 C-22.68955459 40.92888886 -25.33675312 44.34197129 -27.91015625 47.890625 C-28.35230469 48.40109375 -28.79445313 48.9115625 -29.25 49.4375 C-29.91 49.4375 -30.57 49.4375 -31.25 49.4375 C-31.518125 50.015 -31.78625 50.5925 -32.0625 51.1875 C-33.27929189 53.49300043 -34.55333879 55.45806192 -36.25 57.4375 C-36.91 57.4375 -37.57 57.4375 -38.25 57.4375 C-38.45625 57.994375 -38.6625 58.55125 -38.875 59.125 C-40.86462637 62.4711898 -43.00582552 64.29512063 -46.25 66.4375 C-51.96881533 66.30496662 -54.6023623 64.83275644 -58.625 60.875 C-59.65204138 59.88119784 -60.67940587 58.88772953 -61.70703125 57.89453125 C-62.26342285 57.34748535 -62.81981445 56.80043945 -63.39306641 56.23681641 C-65.46377262 54.23036035 -67.57671079 52.27576826 -69.69921875 50.32421875 C-71.23706158 48.90373505 -72.77482245 47.48316261 -74.3125 46.0625 C-75.05097168 45.38501709 -75.78944336 44.70753418 -76.55029297 44.00952148 C-85.90838796 35.2697408 -85.90838796 35.2697408 -86.25 28.4375 C-84.91833181 25.14749624 -83.38590911 23.55351997 -80.6875 21.25 C-76.64611576 20.29476373 -75.94895586 20.71912179 -72.4375 22.6875 C-67.88260539 25.71954379 -64.18918679 29.28966685 -60.43359375 33.24609375 C-57.31798506 36.37284952 -53.86767978 38.92385328 -50.25 41.4375 C-47.0260483 40.02210657 -44.89333208 38.32335072 -42.4375 35.8125 C-41.81230469 35.18085938 -41.18710937 34.54921875 -40.54296875 33.8984375 C-38.63724129 31.8531082 -36.79366645 29.77796927 -34.9609375 27.66796875 C-30.69631951 22.76773399 -26.23587493 18.06336704 -21.76757812 13.34960938 C-18.21889505 9.58895553 -14.78418597 5.77921328 -11.49633789 1.78735352 C-8.37890284 -1.58900269 -4.17159875 -1.04289969 0 0 Z " fill="#5C7DF6" transform="translate(313.25,206.5625)"/>
<path d="M0 0 C2.97419874 4.85785794 1.75340184 9.60945094 0.875 15.0625 C-0.445 15.3925 -1.765 15.7225 -3.125 16.0625 C-3.62 14.5775 -3.62 14.5775 -4.125 13.0625 C-9.49629906 10.20642632 -15.15761754 9.48501137 -21.125 10.0625 C-24.84817444 11.34827587 -24.84817444 11.34827587 -28.125 13.0625 C-28.8159375 13.34738281 -29.506875 13.63226563 -30.21875 13.92578125 C-33.25422737 15.73587124 -33.62274726 18.0170635 -34.5859375 21.29296875 C-36.11018602 29.12407167 -36.32120621 37.11705524 -32.125 44.0625 C-29.07329403 47.67636234 -26.62548294 49.67040146 -22.125 51.0625 C-14.18140582 51.34418774 -7.66000489 50.66670799 -1.125 46.0625 C-0.465 46.0625 0.195 46.0625 0.875 46.0625 C1.01036022 48.14403935 1.10715465 50.22811206 1.1875 52.3125 C1.24550781 53.47265625 1.30351562 54.6328125 1.36328125 55.828125 C0.875 59.0625 0.875 59.0625 -1.43359375 61.375 C-10.25539301 66.90622972 -19.83069426 67.6383079 -30 65.44140625 C-37.4244059 62.83126355 -43.79437827 58.08407401 -47.76171875 51.23828125 C-52.73793306 40.55866946 -54.34246002 28.4304419 -50.5 17.0625 C-46.66190944 8.11142866 -40.81290467 1.43188163 -32.0703125 -2.97265625 C-21.4364293 -7.15999121 -9.60159155 -5.95298676 0 0 Z " fill="#226ACD" transform="translate(368.125,327.9375)"/>
<path d="M0 0 C5.14724579 3.87317505 7.31208945 9.00147237 8.578125 15.1875 C9.06778172 21.19060519 8.8617279 27.23420027 8.765625 33.25 C8.75055251 34.89517006 8.73686864 36.54035345 8.72460938 38.18554688 C8.69180282 42.18653141 8.64016266 46.18686631 8.578125 50.1875 C6.45374161 50.26828641 4.3284927 50.32659141 2.203125 50.375 C1.01976562 50.40980469 -0.16359375 50.44460938 -1.3828125 50.48046875 C-2.88714844 50.33544922 -2.88714844 50.33544922 -4.421875 50.1875 C-5.081875 49.1975 -5.741875 48.2075 -6.421875 47.1875 C-7.55625 47.8475 -8.690625 48.5075 -9.859375 49.1875 C-15.22881572 51.83907566 -19.86676307 52.19425736 -25.62890625 50.5625 C-30.38925553 48.58417303 -32.82354244 46.085266 -34.796875 41.328125 C-36.28736141 36.22320906 -35.99643729 31.94817477 -34.046875 27 C-31.20022926 21.94372016 -26.8176129 19.88330334 -21.421875 18.1875 C-16.28728185 17.29534104 -11.42218699 16.52072934 -6.421875 18.1875 C-8.0546601 14.44082798 -8.0546601 14.44082798 -10.421875 11.1875 C-16.38254526 10.6552973 -20.12495773 11.6025227 -25.44140625 14.3125 C-27.421875 15.1875 -27.421875 15.1875 -30.421875 15.1875 C-30.751875 10.8975 -31.081875 6.6075 -31.421875 2.1875 C-21.62854241 -2.87238851 -10.24499254 -6.19865095 0 0 Z M-18.421875 29.1875 C-20.77161318 31.08505144 -20.77161318 31.08505144 -20.546875 34.3125 C-20.505625 35.26125 -20.464375 36.21 -20.421875 37.1875 C-17.28316312 38.75685594 -14.88331678 38.53951103 -11.421875 38.1875 C-8.48214219 35.83331624 -8.48214219 35.83331624 -6.421875 33.1875 C-6.751875 32.1975 -7.081875 31.2075 -7.421875 30.1875 C-7.091875 29.8575 -6.761875 29.5275 -6.421875 29.1875 C-11.29246629 26.67364643 -13.03900208 27.48764539 -18.421875 29.1875 Z " fill="#216ACD" transform="translate(165.421875,342.8125)"/>
<path d="M0 0 C4.95 0 9.9 0 15 0 C15 18.15 15 36.3 15 55 C24.57 55 34.14 55 44 55 C45 60 45 60 44 69 C29.15 69 14.3 69 -1 69 C-0.67 46.23 -0.34 23.46 0 0 Z " fill="#2970D0" transform="translate(82,324)"/>
<path d="M0 0 C4.89912708 4.89912708 7.79808108 10.25086691 8.09765625 17.296875 C7.6171826 24.09381934 5.27704218 30.22092667 0.1875 34.875 C-5.42665602 38.61777068 -10.24582857 39.46976587 -16.80078125 38.45703125 C-22.808158 37.2086066 -25.95450155 35.49918774 -29.375 30.4375 C-33.25074404 24.12646224 -33.64798911 19.42905828 -33 12 C-31.06826097 4.60419914 -27.38223434 0.73889646 -21 -3.25 C-13.57156977 -6.03566133 -6.3193206 -4.78218856 0 0 Z " fill="#216DD4" transform="translate(316,147)"/>
<path d="M0 0 C4.82666287 3.69962484 7.9027702 9.07739153 9.1015625 14.9921875 C9.92925964 21.96655354 8.51413885 27.8628028 5.1015625 33.9921875 C0.35004996 38.74370004 -4.57188674 40.56411871 -11.171875 41.0703125 C-15.98814857 40.93231039 -19.88921433 39.66270276 -23.8984375 36.9921875 C-29.66799828 30.49704301 -31.27504923 24.6195503 -31.171875 16.06640625 C-30.62139744 9.8774657 -28.06424202 5.81307642 -23.5859375 1.6171875 C-16.48792667 -3.87514223 -7.95009186 -4.22041914 0 0 Z " fill="#216ED4" transform="translate(220.8984375,145.0078125)"/>
<path d="M0 0 C4.29 0 8.58 0 13 0 C13 17.49 13 34.98 13 53 C12.67 53 12.34 53 12 53 C12 35.84 12 18.68 12 1 C8.7 1 5.4 1 2 1 C2 21.79 2 42.58 2 64 C14.87 64 27.74 64 41 64 C40.505 60.535 40.505 60.535 40 57 C31.09 56.67 22.18 56.34 13 56 C13 55.67 13 55.34 13 55 C22.57 55 32.14 55 42 55 C42 58.3 42 61.6 42 65 C38.98256819 65.75435795 36.88386126 66.13864864 33.87402344 66.20532227 C33.07349548 66.22526749 32.27296753 66.24521271 31.44818115 66.26576233 C30.16672211 66.29083107 30.16672211 66.29083107 28.859375 66.31640625 C27.97719299 66.33718735 27.09501099 66.35796844 26.18609619 66.37937927 C23.37414169 66.44464867 20.56209555 66.50365447 17.75 66.5625 C15.84113644 66.60570673 13.93228207 66.64932171 12.0234375 66.69335938 C7.34905174 66.80030687 2.67457398 66.90163785 -2 67 C-1.01 66.505 -1.01 66.505 0 66 C0 44.22 0 22.44 0 0 Z " fill="#165BBC" transform="translate(83,326)"/>
<path d="M0 0 C0.33 0.66 0.66 1.32 1 2 C5.64586892 1.51515724 5.64586892 1.51515724 10 0 C12.04470249 1.66736408 12.92566921 2.52497566 13.34057617 5.17651367 C13.32486572 5.99869385 13.30915527 6.82087402 13.29296875 7.66796875 C13.28330078 8.56064453 13.27363281 9.45332031 13.26367188 10.37304688 C13.23853516 11.30181641 13.21339844 12.23058594 13.1875 13.1875 C13.16719727 14.59805664 13.16719727 14.59805664 13.14648438 16.03710938 C13.11113096 18.35865038 13.06178674 20.67903653 13 23 C13.66 23.33 14.32 23.66 15 24 C13.68 24.99 12.36 25.98 11 27 C11 19.08 11 11.16 11 3 C7.04 3 3.08 3 -1 3 C-1 25.11 -1 47.22 -1 70 C2.96 70 6.92 70 11 70 C11.33 68.68 11.66 67.36 12 66 C13 68 13 68 12 72 C7.05 72 2.1 72 -3 72 C-3 49.23 -3 26.46 -3 3 C-2.01 2.67 -1.02 2.34 0 2 C0 1.34 0 0.68 0 0 Z " fill="#467DD2" transform="translate(184,321)"/>
<path d="M0 0 C0 22.77 0 45.54 0 69 C-4.95 69 -9.9 69 -15 69 C-15.19203422 62.77065284 -15.37079322 56.54112212 -15.53710938 50.31103516 C-15.59560723 48.19048783 -15.65776984 46.07003838 -15.72363281 43.94970703 C-15.81752469 40.90675676 -15.89834935 37.86370102 -15.9765625 34.8203125 C-16.00875885 33.86818878 -16.0409552 32.91606506 -16.0741272 31.93508911 C-16.10438492 30.61394608 -16.10438492 30.61394608 -16.13525391 29.26611328 C-16.16856308 28.10029221 -16.16856308 28.10029221 -16.20254517 26.91091919 C-16 25 -16 25 -14 23 C-14 37.85 -14 52.7 -14 68 C-10.04 68 -6.08 68 -2 68 C-2 46.22 -2 24.44 -2 2 C-9.92 2.495 -9.92 2.495 -18 3 C-18.66 4.65 -19.32 6.3 -20 8 C-21 5 -21 5 -19.99609375 2.3671875 C-18 0 -18 0 -14.78515625 -0.7421875 C-13.55667969 -0.78601563 -12.32820313 -0.82984375 -11.0625 -0.875 C-9.83660156 -0.93429687 -8.61070312 -0.99359375 -7.34765625 -1.0546875 C-4 -1 -4 -1 0 0 Z " fill="#5989D8" transform="translate(309,324)"/>
<path d="M0 0 C0.33 0 0.66 0 1 0 C1 21.12 1 42.24 1 64 C-2.96 64 -6.92 64 -11 64 C-11.02479481 59.53426489 -11.04290486 55.0685667 -11.05493164 50.6027832 C-11.05994766 49.08487245 -11.06676203 47.5669665 -11.07543945 46.04907227 C-11.08762497 43.86212984 -11.09325572 41.67525154 -11.09765625 39.48828125 C-11.10289307 38.17384033 -11.10812988 36.85939941 -11.11352539 35.50512695 C-11.01677552 32.51794875 -10.70343764 29.89407389 -10 27 C-9.67 27 -9.34 27 -9 27 C-9 38.55 -9 50.1 -9 62 C-6.03 62 -3.06 62 0 62 C0 41.54 0 21.08 0 0 Z " fill="#1056B9" transform="translate(306,328)"/>
<path d="M0 0 C6.27 0 12.54 0 19 0 C22 7 22 7 21 10 C18 6.25 18 6.25 18 4 C12.46461177 2.61615294 6.68894123 2.43761086 1 2 C1 23.78 1 45.56 1 68 C4.63 68 8.26 68 12 68 C12 68.33 12 68.66 12 69 C8.04 69 4.08 69 0 69 C0 46.23 0 23.46 0 0 Z " fill="#558AD5" transform="translate(239,324)"/>
<path d="M0 0 C-2.31 0.66 -4.62 1.32 -7 2 C-7 2.66 -7 3.32 -7 4 C-13.625 7 -13.625 7 -17 7 C-17 7.66 -17 8.32 -17 9 C-16.39414063 9.10957031 -15.78828125 9.21914062 -15.1640625 9.33203125 C-8.96856205 10.50441057 -3.00539533 12.08338447 3 14 C-5.17062392 16.71063353 -17.48711881 12.7564406 -25 9 C-25 8.34 -25 7.68 -25 7 C-23.83082031 6.59007813 -22.66164062 6.18015625 -21.45703125 5.7578125 C-19.90883441 5.21359785 -18.36065843 4.6693239 -16.8125 4.125 C-16.04357422 3.85558594 -15.27464844 3.58617188 -14.48242188 3.30859375 C-13.73154297 3.04433594 -12.98066406 2.78007813 -12.20703125 2.5078125 C-11.47693848 2.25161133 -10.7468457 1.99541016 -9.99462891 1.73144531 C-8.35179772 1.12900685 -6.73876256 0.44595027 -5.13671875 -0.2578125 C-3 -1 -3 -1 0 0 Z " fill="#3974CD" transform="translate(178,76)"/>
<path d="M0 0 C5.68572687 1.01903048 11.22435754 2.64692197 16.78710938 4.18359375 C28.01730602 7.20814073 38.59642761 7.06629635 50.17382812 6.87304688 C51.39134766 6.86208984 52.60886719 6.85113281 53.86328125 6.83984375 C54.96969971 6.82300537 56.07611816 6.80616699 57.21606445 6.78881836 C60 7 60 7 63 9 C62.67 9.66 62.34 10.32 62 11 C61.34 10.67 60.68 10.34 60 10 C57.82953715 9.85654721 55.65498062 9.77339255 53.48046875 9.71875 C52.82605301 9.70034058 52.17163727 9.68193115 51.49739075 9.66296387 C49.3941859 9.60420406 47.29089262 9.55156673 45.1875 9.5 C16.81000724 8.78446053 16.81000724 8.78446053 9.1875 5.9375 C8.19105469 5.57527344 7.19460937 5.21304687 6.16796875 4.83984375 C5.45253906 4.56269531 4.73710937 4.28554688 4 4 C4 3.34 4 2.68 4 2 C2.68 1.34 1.36 0.68 0 0 Z " fill="#5288DA" transform="translate(228,273)"/>
<path d="M0 0 C4.43575051 5.20718539 4.1436132 10.55744319 4.09765625 17.14453125 C4.0962413 17.91431808 4.09482635 18.68410492 4.09336853 19.47721863 C4.08779606 21.92235288 4.07524871 24.36739368 4.0625 26.8125 C4.05748144 28.47591013 4.05291915 30.1393217 4.04882812 31.80273438 C4.03783566 35.86852528 4.0205901 39.93424683 4 44 C-0.29 44 -4.58 44 -9 44 C-8.67 43.34 -8.34 42.68 -8 42 C-4.7 42 -1.4 42 2 42 C1.88130527 36.98276239 1.75702867 31.96570488 1.62768555 26.94873047 C1.58450154 25.2436901 1.54281553 23.53861108 1.50268555 21.83349609 C1.44458028 19.37585833 1.38100414 16.91841216 1.31640625 14.4609375 C1.29969376 13.70444916 1.28298126 12.94796082 1.26576233 12.16854858 C1.15109247 8.02740613 0.79041337 4.06739407 0 0 Z " fill="#427ACD" transform="translate(170,349)"/>
<path d="M0 0 C2.97419874 4.85785794 1.75340184 9.60945094 0.875 15.0625 C-0.445 15.3925 -1.765 15.7225 -3.125 16.0625 C-3.455 14.7425 -3.785 13.4225 -4.125 12.0625 C-3.465 12.0625 -2.805 12.0625 -2.125 12.0625 C-2.125 8.4325 -2.125 4.8025 -2.125 1.0625 C-8.32837009 -2.25234432 -13.61746131 -2.30122414 -20.5625 -2.125 C-22.08907227 -2.10469727 -22.08907227 -2.10469727 -23.64648438 -2.08398438 C-26.13988214 -2.0488661 -28.63215512 -1.99968559 -31.125 -1.9375 C-23.65367127 -9.40882873 -7.88066252 -4.88601076 0 0 Z " fill="#4D83D0" transform="translate(368.125,327.9375)"/>
<path d="M0 0 C0.99 0.495 0.99 0.495 2 1 C2 1.66 2 2.32 2 3 C2.66 3 3.32 3 4 3 C7.76815959 10.56561082 8.46938814 16.63610972 7.875 25 C7.82601563 26.01578125 7.77703125 27.0315625 7.7265625 28.078125 C7.36269327 34.52853399 6.44986858 40.70621275 5 47 C4.67 47 4.34 47 4 47 C4.60297309 38.32745081 5.25441318 29.66149795 6 21 C5.01 20.67 4.02 20.34 3 20 C3.66 20 4.32 20 5 20 C4.546047 17.79076207 4.08663994 15.58264447 3.625 13.375 C3.36976563 12.14523438 3.11453125 10.91546875 2.8515625 9.6484375 C2.07977727 6.34179804 1.13180625 3.19858287 0 0 Z " fill="#427FD9" transform="translate(334,145)"/>
<path d="M0 0 C5.33884963 0.09362397 10.67725056 0.199738 16.015625 0.31738281 C17.83131121 0.35564191 19.64707241 0.39050017 21.46289062 0.421875 C24.07449123 0.4675923 26.68557688 0.52557536 29.296875 0.5859375 C30.51271271 0.60326431 30.51271271 0.60326431 31.75311279 0.62094116 C35.61264724 0.72178156 38.72818586 0.81111026 42 3 C42.25 6.3125 42.25 6.3125 42 10 C40.1875 12 40.1875 12 38 13 C37.01 12.67 36.02 12.34 35 12 C35.99 11.34 36.98 10.68 38 10 C38.73606499 6.43230448 38.73606499 6.43230448 39 3 C38.31599121 3.01047363 37.63198242 3.02094727 36.92724609 3.03173828 C11.80611778 3.36544757 11.80611778 3.36544757 0 1 C0 0.67 0 0.34 0 0 Z " fill="#2264C6" transform="translate(250,281)"/>
<path d="M0 0 C0.66 0.33 1.32 0.66 2 1 C1.4225 1.309375 0.845 1.61875 0.25 1.9375 C-4.36248552 6.16561173 -6.72893737 13.17990806 -7.16796875 19.3671875 C-7.20659693 24.32704525 -6.95878305 28.34789025 -5 33 C-8.17905894 30.10994642 -9.79875363 27.61699122 -10.3359375 23.30078125 C-10.43469218 15.74604827 -9.85817642 9.00873941 -4.3984375 3.3359375 C-2.75 1.9375 -2.75 1.9375 0 0 Z " fill="#4481D7" transform="translate(293,145)"/>
<path d="M0 0 C4.4144355 0.40131232 6.82051634 2.20264815 10.22265625 4.80078125 C12.1525007 6.21863092 12.1525007 6.21863092 15.375 7.125 C16.24125 7.41375 17.1075 7.7025 18 8 C18.33 8.99 18.66 9.98 19 11 C14.85701333 10.40165275 11.81805623 8.99335715 8.1875 6.9375 C7.21167969 6.38964844 6.23585937 5.84179688 5.23046875 5.27734375 C4.49441406 4.85582031 3.75835937 4.43429688 3 4 C3.60825035 8.34464536 4.26167392 12.67551867 5 17 C2.5863604 14.5863604 2.24467148 12.90164101 1.375 9.625 C1.11460937 8.66851562 0.85421875 7.71203125 0.5859375 6.7265625 C0 4 0 4 0 0 Z " fill="#3F7CD6" transform="translate(173,203)"/>
<path d="M0 0 C6.27 0 12.54 0 19 0 C22 7 22 7 21 10 C18 6.25 18 6.25 18 4 C14.43928688 2.95117609 10.94472103 2.69613047 7.25 2.4375 C6.07953125 2.35371094 4.9090625 2.26992188 3.703125 2.18359375 C2.81109375 2.12300781 1.9190625 2.06242187 1 2 C1 5.3 1 8.6 1 12 C0.67 12 0.34 12 0 12 C0 8.04 0 4.08 0 0 Z " fill="#4E83D4" transform="translate(239,324)"/>
<path d="M0 0 C1.34069042 2.68138083 0.95246807 4.63649261 0.8125 7.625 C0.74055744 13.61062058 1.90310588 16.93235507 5 22 C5.33 22.66 5.66 23.32 6 24 C3.24955765 23.38879059 1.49031585 22.6547988 -0.22265625 20.3671875 C-2.94136199 15.39751034 -3.63476934 11.62224271 -3 6 C-1.5 2.5 -1.5 2.5 0 0 Z " fill="#316DC5" transform="translate(133,368)"/>
<path d="M0 0 C1 3 1 3 0.37915039 4.80932617 C0.03875732 5.46392822 -0.30163574 6.11853027 -0.65234375 6.79296875 C-1.01650391 7.50517578 -1.38066406 8.21738281 -1.75585938 8.95117188 C-2.14580078 9.68916016 -2.53574219 10.42714844 -2.9375 11.1875 C-3.51661133 12.31188477 -3.51661133 12.31188477 -4.10742188 13.45898438 C-5.06271757 15.31060689 -6.03021577 17.15592452 -7 19 C-10.63 19 -14.26 19 -18 19 C-19.06775224 17.03533587 -20.06553465 15.03144641 -21 13 C-20.67 12.34 -20.34 11.68 -20 11 C-18.5 12.3125 -18.5 12.3125 -17 14 C-17 14.99 -17 15.98 -17 17 C-13.7 17 -10.4 17 -7 17 C-6.6596875 15.8553125 -6.6596875 15.8553125 -6.3125 14.6875 C-4.51834512 9.64677913 -2.25941923 4.84654049 0 0 Z " fill="#4881D2" transform="translate(286,365)"/>
<path d="M0 0 C0.77730469 -0.020625 1.55460937 -0.04125 2.35546875 -0.0625 C7.70629707 -0.09847196 11.34703412 0.82916396 16.125 3.25 C16.125 4.24 16.125 5.23 16.125 6.25 C14.00801881 5.75217109 11.95944711 5.19394437 9.8984375 4.49609375 C1.08723854 1.52554296 -6.7831451 1.90305853 -15.875 3.25 C-11.79808013 -0.82691987 -5.45103035 0.03580315 0 0 Z " fill="#4180D8" transform="translate(211.875,125.75)"/>
<path d="M0 0 C-2.97 0.66 -5.94 1.32 -9 2 C-9 2.66 -9 3.32 -9 4 C-14.91382675 6.8018492 -20.630594 9.44303409 -27 11 C-21.82143985 4.64449436 -8.16659326 -2.72219775 0 0 Z " fill="#4780D7" transform="translate(299,111)"/>
<path d="M0 0 C3.31660816 2.1373697 6.21915337 4.21915337 9 7 C12.76300374 8.25433458 16.27210909 8.10695422 20.1875 8.0625 C20.93708984 8.05798828 21.68667969 8.05347656 22.45898438 8.04882812 C24.30602383 8.03706354 26.15302213 8.01912865 28 8 C24.88057906 11.11942094 21.45486401 10.80668779 17.1796875 11.09375 C11.10033173 10.9145061 6.33504628 8.502306 1.9375 4.375 C0 2 0 2 0 0 Z " fill="#1A61C4" transform="translate(333,372)"/>
<path d="M0 0 C-0.33 1.32 -0.66 2.64 -1 4 C-1.33 3.67 -1.66 3.34 -2 3 C-4.69654854 2.92680379 -7.36691458 2.90757463 -10.0625 2.9375 C-11.20041992 2.94426758 -11.20041992 2.94426758 -12.36132812 2.95117188 C-14.24091871 2.9629932 -16.12046899 2.98092922 -18 3 C-18.66 4.65 -19.32 6.3 -20 8 C-21 5 -21 5 -19.99609375 2.3671875 C-18 0 -18 0 -14.78515625 -0.7421875 C-13.55667969 -0.78601563 -12.32820313 -0.82984375 -11.0625 -0.875 C-9.83660156 -0.93429687 -8.61070312 -0.99359375 -7.34765625 -1.0546875 C-4.63492173 -1.01037212 -2.55394466 -0.8321123 0 0 Z " fill="#437BD4" transform="translate(309,324)"/>
<path d="M0 0 C0.6875 2.0625 0.6875 2.0625 1 4 C0.29875 3.62875 -0.4025 3.2575 -1.125 2.875 C-3.97443733 1.69785541 -3.97443733 1.69785541 -6.64453125 2.9296875 C-10.73964422 4.23592843 -14.29886005 4.29468444 -18.5625 4.25 C-19.30435547 4.25773437 -20.04621094 4.26546875 -20.81054688 4.2734375 C-24.99053418 4.25854885 -28.18209028 3.90517475 -32 2 C-28.73420603 0.91140201 -26.65658758 1.26973565 -23.30859375 1.73046875 C-16.03496465 2.57967418 -5.7885511 -1.92951703 0 0 Z " fill="#5085D1" transform="translate(425,390)"/>
<path d="M0 0 C0.99 0.33 1.98 0.66 3 1 C3.95703125 3.6953125 3.95703125 3.6953125 4.8125 7.125 C6.52976613 13.19891017 8.51446256 16.6164066 13 21 C6.77298421 18.17673437 3.57750784 12.89209471 0.71484375 6.90234375 C-0.17969931 4.52178379 -0.31459455 2.51675637 0 0 Z " fill="#3C76CE" transform="translate(375,367)"/>
<path d="M0 0 C-1.2065625 0.86625 -1.2065625 0.86625 -2.4375 1.75 C-4.97866739 3.98126893 -5.65120368 4.74456771 -6 8 C-4.35 8.33 -2.7 8.66 -1 9 C-2 12 -2 12 -5 14 C-5.99 13.67 -6.98 13.34 -8 13 C-7.94008594 11.04081032 -7.85132862 9.08248471 -7.75 7.125 C-7.68039063 5.48917969 -7.68039063 5.48917969 -7.609375 3.8203125 C-7 1 -7 1 -5.140625 -0.4453125 C-3 -1 -3 -1 0 0 Z " fill="#2664C5" transform="translate(143,344)"/>
<path d="M0 0 C0.99 0.33 1.98 0.66 3 1 C4.19015681 3.56683074 5.18822523 6.03016655 6.125 8.6875 C6.38925781 9.39583984 6.65351563 10.10417969 6.92578125 10.83398438 C8.39425204 14.87041551 9.44711628 18.71852244 10 23 C7.19456704 20.19456704 5.98792634 16.77745625 4.4375 13.1875 C4.12103516 12.47529297 3.80457031 11.76308594 3.47851562 11.02929688 C1.88536793 7.37283689 0.57081717 3.98008136 0 0 Z " fill="#4176D0" transform="translate(255,353)"/>
<path d="M0 0 C0.0810206 2.10353495 0.13919907 4.20795952 0.1875 6.3125 C0.22230469 7.48425781 0.25710938 8.65601563 0.29296875 9.86328125 C0 13 0 13 -1.51171875 14.91796875 C-2.00285156 15.27503906 -2.49398438 15.63210938 -3 16 C-3.66 15.67 -4.32 15.34 -5 15 C-4.67 14.34 -4.34 13.68 -4 13 C-3.34 13 -2.68 13 -2 13 C-2 9.7 -2 6.4 -2 3 C-3.98 3.99 -3.98 3.99 -6 5 C-6.99 4.67 -7.98 4.34 -9 4 C-2.25 0 -2.25 0 0 0 Z " fill="#447DCE" transform="translate(369,374)"/>
<path d="M0 0 C6.13027032 1.45190613 11.23739067 4.97285953 16 9 C16.33 9.99 16.66 10.98 17 12 C13.20060343 10.62894307 10.11309316 8.88439988 6.8125 6.5625 C5.95269531 5.96566406 5.09289062 5.36882812 4.20703125 4.75390625 C2 3 2 3 0 0 Z " fill="#3B76D0" transform="translate(197,271)"/>
<path d="M0 0 C2.75979741 3.28585851 4.18309468 6.62228796 5.6875 10.625 C6.12449219 11.77226562 6.56148438 12.91953125 7.01171875 14.1015625 C8 17 8 17 8 19 C8.66 19 9.32 19 10 19 C10 19.99 10 20.98 10 22 C9.34 22 8.68 22 8 22 C3.55792051 14.77812862 0.9479398 8.44973922 0 0 Z " fill="#437CD0" transform="translate(265,343)"/>
<path d="M0 0 C6.45827045 0.96156471 10.39769745 2.28811881 15 7 C16.9375 9.6875 16.9375 9.6875 18 12 C17.67 12.66 17.34 13.32 17 14 C16.45601563 13.25105469 15.91203125 12.50210938 15.3515625 11.73046875 C12.88567618 8.86725523 10.60204956 7.24785991 7.375 5.3125 C2.15932203 2.15932203 2.15932203 2.15932203 0 0 Z " fill="#427FD7" transform="translate(315,129)"/>
<path d="M0 0 C-0.69867188 0.26554687 -1.39734375 0.53109375 -2.1171875 0.8046875 C-3.02726562 1.15789063 -3.93734375 1.51109375 -4.875 1.875 C-5.77992188 2.22304688 -6.68484375 2.57109375 -7.6171875 2.9296875 C-10.12217007 3.88530895 -10.12217007 3.88530895 -12 6 C-14.3828125 6.4140625 -14.3828125 6.4140625 -17.125 6.625 C-18.03507813 6.69976562 -18.94515625 6.77453125 -19.8828125 6.8515625 C-20.93082031 6.92503906 -20.93082031 6.92503906 -22 7 C-18.51673576 4.67782384 -14.88975079 3.28326876 -11 1.8125 C-10.27554688 1.52697266 -9.55109375 1.24144531 -8.8046875 0.94726562 C-3.35592226 -1.11864075 -3.35592226 -1.11864075 0 0 Z " fill="#4A84D5" transform="translate(249,50)"/>
<path d="M0 0 C1.2065625 0.0309375 1.2065625 0.0309375 2.4375 0.0625 C-4.87458155 7.05666496 -17.22208003 5.26879148 -26.5625 5.0625 C-26.5625 4.7325 -26.5625 4.4025 -26.5625 4.0625 C-25.20318359 3.98902344 -25.20318359 3.98902344 -23.81640625 3.9140625 C-15.85288628 3.42529619 -7.30395227 0.17814518 0 0 Z " fill="#568FE1" transform="translate(227.5625,211.9375)"/>
<path d="M0 0 C3.14136538 2.57020804 4.05876859 5.09026955 5 9 C5.43847457 14.15431335 5.35917524 17.28164952 3 22 C3 16.72 3 11.44 3 6 C2.34 6 1.68 6 1 6 C0.67 4.02 0.34 2.04 0 0 Z " fill="#4481D6" transform="translate(225,151)"/>
<path d="M0 0 C0.99 0.33 1.98 0.66 3 1 C2.67 4.96 2.34 8.92 2 13 C0.68 13.33 -0.64 13.66 -2 14 C-2.33 12.68 -2.66 11.36 -3 10 C-2.34 10 -1.68 10 -1 10 C-0.67 6.7 -0.34 3.4 0 0 Z " fill="#417EDC" transform="translate(367,330)"/>
<path d="M0 0 C0.66 0.33 1.32 0.66 2 1 C1.6083965 6.95507399 0.62875405 11.62819824 -2 17 C-3.30211046 13.09366863 -2.47812346 10.80461827 -1.5625 6.8125 C-1.27503906 5.54019531 -0.98757813 4.26789063 -0.69140625 2.95703125 C-0.46324219 1.98121094 -0.23507812 1.00539062 0 0 Z " fill="#3F7BD2" transform="translate(348,202)"/>
<path d="M0 0 C1.65 1.32 3.3 2.64 5 4 C3.58426179 7.39187279 1.95769034 9.09697541 -1 11.25 C-1.70125 11.77078125 -2.4025 12.2915625 -3.125 12.828125 C-5 14 -5 14 -7 14 C-7 13.34 -7 12.68 -7 12 C-6.01 11.67 -5.02 11.34 -4 11 C-3.34 10.01 -2.68 9.02 -2 8 C-1.01 8 -0.02 8 1 8 C1 7.34 1 6.68 1 6 C1.66 6 2.32 6 3 6 C2.2575 5.071875 2.2575 5.071875 1.5 4.125 C0 2 0 2 0 0 Z " fill="#4178C6" transform="translate(435,385)"/>
<path d="M0 0 C5.70820358 -0.57082036 9.17675001 1.32475608 14 4 C15.33054011 4.6722241 16.66312072 5.34047289 18 6 C11.38914524 5.51030705 6.05022986 3.66557258 0 1 C0 0.67 0 0.34 0 0 Z " fill="#4A80D5" transform="translate(225,288)"/>
<path d="M0 0 C0.66 0.33 1.32 0.66 2 1 C0.93071226 2.65499311 -0.15597192 4.29875626 -1.25 5.9375 C-1.85328125 6.85402344 -2.4565625 7.77054688 -3.078125 8.71484375 C-5.09333887 11.11098219 -5.94918504 11.68276924 -9 12 C-7.55575365 8.76138697 -5.74227753 6.38030837 -3.375 3.75 C-2.74335938 3.04359375 -2.11171875 2.3371875 -1.4609375 1.609375 C-0.97882813 1.07828125 -0.49671875 0.5471875 0 0 Z " fill="#3E7FD2" transform="translate(175,123)"/>
<path d="M0 0 C3.3610028 -0.64995002 6.62329566 -0.51739825 10 0 C12.625 2 12.625 2 14 4 C12.02 4.33 10.04 4.66 8 5 C8 3.68 8 2.36 8 1 C4.7 1.66 1.4 2.32 -2 3 C-1.34 2.01 -0.68 1.02 0 0 Z " fill="#2461C5" transform="translate(201,351)"/>
<path d="M0 0 C2.96659857 3.55991828 5.381348 7.65222543 7 12 C6.67 12.66 6.34 13.32 6 14 C2.6951619 11.7967746 2.43341089 11.17432399 1.3125 7.5625 C1.06113281 6.78003906 0.80976563 5.99757812 0.55078125 5.19140625 C0 3 0 3 0 0 Z " fill="#4386DA" transform="translate(180,224)"/>
<path d="M0 0 C2.5999298 2.51027705 4.99091227 4.9863684 7 8 C7 8.66 7 9.32 7 10 C6.34 10 5.68 10 5 10 C4.67 10.66 4.34 11.32 4 12 C3.34 11.34 2.68 10.68 2 10 C2 8.33333333 2 6.66666667 2 5 C1.34 4.34 0.68 3.68 0 3 C0 2.01 0 1.02 0 0 Z " fill="#145CBD" transform="translate(431,381)"/>
<path d="M0 0 C0.66 0 1.32 0 2 0 C2.125 6.625 2.125 6.625 1 10 C0.01 10.33 -0.98 10.66 -2 11 C-1.34 7.37 -0.68 3.74 0 0 Z " fill="#3D7ED7" transform="translate(337,192)"/>
<path d="M0 0 C3.7910119 1.44950455 7.3874638 3.15172566 11 5 C11 5.33 11 5.66 11 6 C5.92387682 6.61528766 3.17017994 4.61658349 -1 2 C-0.67 1.34 -0.34 0.68 0 0 Z " fill="#3C77D1" transform="translate(215,266)"/>
<path d="M0 0 C0.33 1.32 0.66 2.64 1 4 C-0.11375 4.61875 -0.11375 4.61875 -1.25 5.25 C-3.90171685 6.93745618 -5.86674014 8.70872089 -8 11 C-8.99 10.67 -9.98 10.34 -11 10 C-10.45730469 9.52949219 -9.91460937 9.05898438 -9.35546875 8.57421875 C-8.64003906 7.95160156 -7.92460937 7.32898438 -7.1875 6.6875 C-6.47980469 6.07261719 -5.77210938 5.45773437 -5.04296875 4.82421875 C-3.29863261 3.26665665 -1.63221959 1.67341125 0 0 Z " fill="#5676F0" transform="translate(276,260)"/>
<path d="M0 0 C1.49341969 2.98683937 0.40648676 4.95160978 -0.4375 8.125 C-0.72496094 9.22070312 -1.01242188 10.31640625 -1.30859375 11.4453125 C-1.53675781 12.28835938 -1.76492187 13.13140625 -2 14 C-2.33 14 -2.66 14 -3 14 C-3.29341888 8.32723489 -3.00559652 5.00932754 0 0 Z " fill="#487DD0" transform="translate(133,368)"/>
<path d="M0 0 C0.33 0.66 0.66 1.32 1 2 C3.02463255 2.65213292 3.02463255 2.65213292 5 3 C1.98509443 4.00496852 -0.04181692 4.10335303 -3.1875 4.0625 C-4.53908203 4.04896484 -4.53908203 4.04896484 -5.91796875 4.03515625 C-6.60503906 4.02355469 -7.29210937 4.01195312 -8 4 C-4.91190305 2.23537317 -3.76687864 2 0 2 C0 1.34 0 0.68 0 0 Z " fill="#165AC5" transform="translate(151,360)"/>
<path d="M0 0 C3.78383679 0.92493788 5.56693694 1.39371171 7.875 4.625 C8.431875 5.800625 8.431875 5.800625 9 7 C4.58110387 5.64978174 2.65654657 3.73884332 0 0 Z " fill="#4682D6" transform="translate(197,271)"/>
<path d="M0 0 C0.66 0 1.32 0 2 0 C3.1577506 3.47325181 3.06866652 6.36067448 3 10 C-0.00617269 6.99382731 0.40414684 4.17618402 0 0 Z " fill="#3574CF" transform="translate(268,175)"/>
<path d="M0 0 C1.25460729 2.50921458 0.86211613 3.38830225 0.1875 6.0625 C0.01605469 6.77535156 -0.15539062 7.48820312 -0.33203125 8.22265625 C-1 10 -1 10 -3 11 C-2.25 3.375 -2.25 3.375 0 0 Z " fill="#3D7ACE" transform="translate(379,338)"/>
<path d="M0 0 C-1.175625 0.86625 -1.175625 0.86625 -2.375 1.75 C-4.80047244 3.82897637 -5.85694417 5.09040333 -7 8 C-7 5.69 -7 3.38 -7 1 C-3.375 -1.125 -3.375 -1.125 0 0 Z " fill="#1357BB" transform="translate(143,344)"/>
<path d="M0 0 C2.125 4.625 2.125 4.625 1 8 C-2 4.25 -2 4.25 -2 2 C-3.32 1.67 -4.64 1.34 -6 1 C-3.92446352 0.4465236 -2.15634036 0 0 0 Z " fill="#3C77CC" transform="translate(259,326)"/>
<path d="M0 0 C1.52299523 2.93720508 2.80100302 5.9168649 4 9 C2.0625 8.375 2.0625 8.375 0 7 C-0.8125 3.9375 -0.8125 3.9375 -1 1 C-0.67 0.67 -0.34 0.34 0 0 Z " fill="#3A71CE" transform="translate(332,365)"/>
<path d="M0 0 C0 0.33 0 0.66 0 1 C-0.93972656 1.19916016 -0.93972656 1.19916016 -1.8984375 1.40234375 C-3.12433594 1.66724609 -3.12433594 1.66724609 -4.375 1.9375 C-5.18710937 2.11152344 -5.99921875 2.28554687 -6.8359375 2.46484375 C-9.029463 2.92330693 -9.029463 2.92330693 -11 4 C-11.66 3.34 -12.32 2.68 -13 2 C-8.50343896 -0.24828052 -4.92127034 -0.16682272 0 0 Z " fill="#1762C8" transform="translate(307,144)"/>
<path d="M0 0 C0.99 0.33 1.98 0.66 3 1 C2.34 4.3 1.68 7.6 1 11 C0.67 11 0.34 11 0 11 C0 7.37 0 3.74 0 0 Z " fill="#3574CB" transform="translate(367,330)"/>
<path d="M0 0 C2.3125 0.125 2.3125 0.125 5 1 C6.8125 4.0625 6.8125 4.0625 8 7 C4.2047869 5.50902342 2.38957269 3.24299151 0 0 Z " fill="#5474F1" transform="translate(236,247)"/>
<path d="M0 0 C2.0625 1.75 2.0625 1.75 4 4 C3.75 6.25 3.75 6.25 3 8 C0.37613513 4.93882432 0 4.26826873 0 0 Z " fill="#3577D1" transform="translate(317,149)"/>
<path d="M0 0 C1.65 1.65 3.3 3.3 5 5 C4.67 5.66 4.34 6.32 4 7 C2 5.75 2 5.75 0 4 C0 2.68 0 1.36 0 0 Z " fill="#417CD8" transform="translate(248,129)"/>
<path d="M0 0 C0.99 0.33 1.98 0.66 3 1 C2.01 1 1.02 1 0 1 C0 0.67 0 0.34 0 0 Z " fill="#1574E9" transform="translate(152,357)"/>
<path d="M0 0 C4 1 4 1 4 1 Z " fill="#2535EF" transform="translate(210,200)"/>
<path d="M0 0 C0.66 0 1.32 0 2 0 C2 0.66 2 1.32 2 2 C1.34 2 0.68 2 0 2 C0 1.34 0 0.68 0 0 Z " fill="#001FFF" transform="translate(225,133)"/>
<path d="M0 0 C0.99 0 1.98 0 3 0 C2.67 0.66 2.34 1.32 2 2 C1.34 1.34 0.68 0.68 0 0 Z " fill="#3A4AC4" transform="translate(169,107)"/>
<path d="M0 0 C3 1 3 1 3 1 Z " fill="#1C718D" transform="translate(145,395)"/>
<path d="M0 0 C3 1 3 1 3 1 Z " fill="#002AFF" transform="translate(116,377)"/>
<path d="M0 0 C0.66 0.66 1.32 1.32 2 2 C1.34 2 0.68 2 0 2 C0 1.34 0 0.68 0 0 Z " fill="#0054FF" transform="translate(258,366)"/>
<path d="M0 0 C3 1 3 1 3 1 Z " fill="#157FE9" transform="translate(153,355)"/>
<path d="" fill="#002AFF" transform="translate(0,0)"/>
<path d="M0 0 C3 1 3 1 3 1 Z " fill="#1C46FF" transform="translate(209,283)"/>
<path d="" fill="#0054FF" transform="translate(0,0)"/>
<path d="" fill="#002AFF" transform="translate(0,0)"/>
<path d="M0 0 C0.99 0.495 0.99 0.495 2 1 C1.01 1.495 1.01 1.495 0 2 C0 1.34 0 0.68 0 0 Z " fill="#0054FF" transform="translate(241,156)"/>
<path d="" fill="#0054FF" transform="translate(0,0)"/>
<path d="M0 0 C3 1 3 1 3 1 Z " fill="#0000FF" transform="translate(180,94)"/>
<path d="" fill="#0000FF" transform="translate(0,0)"/>
<path d="M0 0 C2 1 2 1 2 1 Z " fill="#0000FF" transform="translate(107,377)"/>
<path d="M0 0 C2 1 2 1 2 1 Z " fill="#007FFF" transform="translate(150,372)"/>
<path d="" fill="#003FFF" transform="translate(0,0)"/>
<path d="" fill="#0000FF" transform="translate(0,0)"/>
<path d="M0 0 C2 1 2 1 2 1 Z " fill="#0000FF" transform="translate(207,338)"/>
<path d="M0 0 C2 1 2 1 2 1 Z " fill="#0000FF" transform="translate(352,321)"/>
<path d="M0 0 C2 1 2 1 2 1 Z " fill="#2A6AD4" transform="translate(349,321)"/>
<path d="" fill="#0000FF" transform="translate(0,0)"/>
<path d="M0 0 C2 1 2 1 2 1 Z " fill="#003FFF" transform="translate(226,291)"/>
<path d="M0 0 C2 1 2 1 2 1 Z " fill="#007FFF" transform="translate(305,270)"/>
<path d="" fill="#3FBFFF" transform="translate(0,0)"/>
<path d="" fill="#003FFF" transform="translate(0,0)"/>
<path d="" fill="#0000FF" transform="translate(0,0)"/>
<path d="" fill="#003FFF" transform="translate(0,0)"/>
<path d="" fill="#007FFF" transform="translate(0,0)"/>
<path d="M0 0 C2 1 2 1 2 1 Z " fill="#0000FF" transform="translate(222,135)"/>
<path d="M0 0 C2 1 2 1 2 1 Z " fill="#003FFF" transform="translate(261,111)"/>
<path d="M0 0 C2 1 2 1 2 1 Z " fill="#003FFF" transform="translate(266,110)"/>
<path d="" fill="#003FFF" transform="translate(0,0)"/>
<path d="" fill="#0000FF" transform="translate(0,0)"/>
<path d="" fill="#0000FF" transform="translate(0,0)"/>
<path d="" fill="#0000FF" transform="translate(0,0)"/>
<path d="" fill="#007FFF" transform="translate(0,0)"/>
<path d="" fill="#0000FF" transform="translate(0,0)"/>
<path d="" fill="#0000FF" transform="translate(0,0)"/>
<path d="" fill="#0000FF" transform="translate(0,0)"/>
<path d="" fill="#0000FF" transform="translate(0,0)"/>
<path d="" fill="#0000FF" transform="translate(0,0)"/>
<path d="" fill="#007FFF" transform="translate(0,0)"/>
<path d="" fill="#007FFF" transform="translate(0,0)"/>
<path d="" fill="#0000FF" transform="translate(0,0)"/>
<path d="" fill="#5555AA" transform="translate(0,0)"/>
<path d="" fill="#0000FF" transform="translate(0,0)"/>
<path d="" fill="#0000FF" transform="translate(0,0)"/>
<path d="" fill="#0000FF" transform="translate(0,0)"/>
<path d="" fill="#0000FF" transform="translate(0,0)"/>
<path d="" fill="#0000FF" transform="translate(0,0)"/>
<path d="" fill="#0000FF" transform="translate(0,0)"/>
<path d="" fill="#5555AA" transform="translate(0,0)"/>
<path d="" fill="#0000FF" transform="translate(0,0)"/>
<path d="" fill="#0000FF" transform="translate(0,0)"/>
<path d="" fill="#3366CC" transform="translate(0,0)"/>
<path d="" fill="#0000FF" transform="translate(0,0)"/>
<path d="" fill="#0000FF" transform="translate(0,0)"/>
<path d="" fill="#0000FF" transform="translate(0,0)"/>
<path d="" fill="#0000FF" transform="translate(0,0)"/>
<path d="" fill="#0000FF" transform="translate(0,0)"/>
<path d="" fill="#007F7F" transform="translate(0,0)"/>
<path d="" fill="#0000FF" transform="translate(0,0)"/>
<path d="" fill="#0000FF" transform="translate(0,0)"/>
<path d="" fill="#0000FF" transform="translate(0,0)"/>
<path d="" fill="#0000FF" transform="translate(0,0)"/>
<path d="" fill="#5555AA" transform="translate(0,0)"/>
<path d="" fill="#0000FF" transform="translate(0,0)"/>
<path d="" fill="#0000FF" transform="translate(0,0)"/>
<path d="" fill="#0000FF" transform="translate(0,0)"/>
<path d="" fill="#0000FF" transform="translate(0,0)"/>
<path d="" fill="#007FFF" transform="translate(0,0)"/>
<path d="" fill="#0000FF" transform="translate(0,0)"/>
<path d="" fill="#0000FF" transform="translate(0,0)"/>
<path d="" fill="#5555AA" transform="translate(0,0)"/>
<path d="" fill="#0000FF" transform="translate(0,0)"/>
<path d="" fill="#0000FF" transform="translate(0,0)"/>
<path d="" fill="#0000FF" transform="translate(0,0)"/>
<path d="" fill="#0000FF" transform="translate(0,0)"/>
<path d="" fill="#007FFF" transform="translate(0,0)"/>
<path d="" fill="#0000FF" transform="translate(0,0)"/>
<path d="" fill="#0000FF" transform="translate(0,0)"/>
<path d="" fill="#007FFF" transform="translate(0,0)"/>
<path d="" fill="#0000FF" transform="translate(0,0)"/>
<path d="" fill="#0000FF" transform="translate(0,0)"/>
<path d="" fill="#0000FF" transform="translate(0,0)"/>
<path d="" fill="#007FFF" transform="translate(0,0)"/>
<path d="" fill="#5555AA" transform="translate(0,0)"/>
<path d="" fill="#0000FF" transform="translate(0,0)"/>
<path d="" fill="#5555AA" transform="translate(0,0)"/>
<path d="" fill="#0000FF" transform="translate(0,0)"/>
<path d="" fill="#0000FF" transform="translate(0,0)"/>
<path d="" fill="#0000FF" transform="translate(0,0)"/>
<path d="" fill="#0000FF" transform="translate(0,0)"/>
<path d="" fill="#0000FF" transform="translate(0,0)"/>
<path d="" fill="#5555AA" transform="translate(0,0)"/>
<path d="" fill="#007FFF" transform="translate(0,0)"/>
<path d="" fill="#0000FF" transform="translate(0,0)"/>
<path d="" fill="#0000FF" transform="translate(0,0)"/>
<path d="" fill="#0000FF" transform="translate(0,0)"/>
<path d="" fill="#0000FF" transform="translate(0,0)"/>
<path d="" fill="#0000FF" transform="translate(0,0)"/>
<path d="" fill="#0000FF" transform="translate(0,0)"/>
<path d="" fill="#0000FF" transform="translate(0,0)"/>
<path d="" fill="#0000FF" transform="translate(0,0)"/>
<path d="" fill="#0000FF" transform="translate(0,0)"/>
<path d="" fill="#0000FF" transform="translate(0,0)"/>
<path d="" fill="#0000FF" transform="translate(0,0)"/>
<path d="" fill="#0000FF" transform="translate(0,0)"/>
<path d="" fill="#0000FF" transform="translate(0,0)"/>
<path d="" fill="#0000FF" transform="translate(0,0)"/>
<path d="" fill="#007FFF" transform="translate(0,0)"/>
<path d="" fill="#007FFF" transform="translate(0,0)"/>
<path d="" fill="#5555AA" transform="translate(0,0)"/>
<path d="" fill="#5555AA" transform="translate(0,0)"/>
<path d="" fill="#0000FF" transform="translate(0,0)"/>
<path d="" fill="#0000FF" transform="translate(0,0)"/>
<path d="" fill="#0000FF" transform="translate(0,0)"/>
<path d="" fill="#0000FF" transform="translate(0,0)"/>
<path d="" fill="#0000FF" transform="translate(0,0)"/>
<path d="" fill="#0000FF" transform="translate(0,0)"/>
<path d="" fill="#0000FF" transform="translate(0,0)"/>
<path d="" fill="#0000FF" transform="translate(0,0)"/>
<path d="" fill="#0000FF" transform="translate(0,0)"/>
<path d="" fill="#0000FF" transform="translate(0,0)"/>
<path d="" fill="#0000FF" transform="translate(0,0)"/>
<path d="" fill="#0000FF" transform="translate(0,0)"/>
<path d="" fill="#007FFF" transform="translate(0,0)"/>
<path d="" fill="#007FFF" transform="translate(0,0)"/>
<path d="" fill="#0000FF" transform="translate(0,0)"/>
<path d="" fill="#0000FF" transform="translate(0,0)"/>
<path d="" fill="#0000FF" transform="translate(0,0)"/>
<path d="" fill="#0000FF" transform="translate(0,0)"/>
<path d="" fill="#007FFF" transform="translate(0,0)"/>
<path d="" fill="#5555FF" transform="translate(0,0)"/>
<path d="" fill="#0000FF" transform="translate(0,0)"/>
<path d="" fill="#007FFF" transform="translate(0,0)"/>
<path d="" fill="#0000FF" transform="translate(0,0)"/>
<path d="" fill="#5555FF" transform="translate(0,0)"/>
<path d="" fill="#3F7FBF" transform="translate(0,0)"/>
<path d="" fill="#0000FF" transform="translate(0,0)"/>
<path d="" fill="#007FFF" transform="translate(0,0)"/>
<path d="" fill="#5555AA" transform="translate(0,0)"/>
<path d="" fill="#0000FF" transform="translate(0,0)"/>
<path d="" fill="#00FFFF" transform="translate(0,0)"/>
<path d="" fill="#00FFFF" transform="translate(0,0)"/>
<path d="" fill="#7F7FFF" transform="translate(0,0)"/>
<path d="" fill="#00FFFF" transform="translate(0,0)"/>
<path d="" fill="#0000FF" transform="translate(0,0)"/>
<path d="" fill="#00FFFF" transform="translate(0,0)"/>
<path d="" fill="#007FFF" transform="translate(0,0)"/>
<path d="" fill="#0000FF" transform="translate(0,0)"/>
<path d="" fill="#00FFFF" transform="translate(0,0)"/>
<path d="" fill="#0000FF" transform="translate(0,0)"/>
<path d="" fill="#00FFFF" transform="translate(0,0)"/>
<path d="" fill="#5555AA" transform="translate(0,0)"/>
<path d="" fill="#00FFFF" transform="translate(0,0)"/>
<path d="" fill="#0000FF" transform="translate(0,0)"/>
<path d="" fill="#3F7FFF" transform="translate(0,0)"/>
<path d="" fill="#0000FF" transform="translate(0,0)"/>
<path d="" fill="#0000FF" transform="translate(0,0)"/>
<path d="" fill="#00FFFF" transform="translate(0,0)"/>
<path d="" fill="#7F7FFF" transform="translate(0,0)"/>
<path d="" fill="#00FFFF" transform="translate(0,0)"/>
<path d="" fill="#7F7FFF" transform="translate(0,0)"/>
<path d="" fill="#00FFFF" transform="translate(0,0)"/>
<path d="" fill="#5555FF" transform="translate(0,0)"/>
<path d="" fill="#0000FF" transform="translate(0,0)"/>
<path d="" fill="#007FFF" transform="translate(0,0)"/>
<path d="" fill="#0000FF" transform="translate(0,0)"/>
<path d="" fill="#0000FF" transform="translate(0,0)"/>
<path d="" fill="#7F7FFF" transform="translate(0,0)"/>
<path d="" fill="#7F7FFF" transform="translate(0,0)"/>
<path d="" fill="#00FFFF" transform="translate(0,0)"/>
<path d="" fill="#0000FF" transform="translate(0,0)"/>
<path d="" fill="#007FFF" transform="translate(0,0)"/>
<path d="" fill="#0000FF" transform="translate(0,0)"/>
<path d="" fill="#0000FF" transform="translate(0,0)"/>
<path d="" fill="#0000FF" transform="translate(0,0)"/>
<path d="" fill="#0000FF" transform="translate(0,0)"/>
<path d="" fill="#007FFF" transform="translate(0,0)"/>
<path d="" fill="#0000FF" transform="translate(0,0)"/>
<path d="" fill="#0000FF" transform="translate(0,0)"/>
<path d="" fill="#0000FF" transform="translate(0,0)"/>
<path d="" fill="#0000FF" transform="translate(0,0)"/>
<path d="" fill="#007FFF" transform="translate(0,0)"/>
<path d="" fill="#0000FF" transform="translate(0,0)"/>
<path d="" fill="#0000FF" transform="translate(0,0)"/>
<path d="" fill="#0000FF" transform="translate(0,0)"/>
<path d="" fill="#0000FF" transform="translate(0,0)"/>
<path d="" fill="#007FFF" transform="translate(0,0)"/>
<path d="" fill="#0000FF" transform="translate(0,0)"/>
<path d="" fill="#0000FF" transform="translate(0,0)"/>
<path d="" fill="#0000FF" transform="translate(0,0)"/>
<path d="" fill="#0000FF" transform="translate(0,0)"/>
<path d="" fill="#0000FF" transform="translate(0,0)"/>
<path d="" fill="#007FFF" transform="translate(0,0)"/>
<path d="" fill="#0000FF" transform="translate(0,0)"/>
<path d="" fill="#0000FF" transform="translate(0,0)"/>
<path d="" fill="#0000FF" transform="translate(0,0)"/>
<path d="" fill="#0000FF" transform="translate(0,0)"/>
<path d="" fill="#0000FF" transform="translate(0,0)"/>
<path d="" fill="#0000FF" transform="translate(0,0)"/>
<path d="" fill="#0000FF" transform="translate(0,0)"/>
<path d="" fill="#0000FF" transform="translate(0,0)"/>
<path d="" fill="#0000FF" transform="translate(0,0)"/>
<path d="" fill="#0000FF" transform="translate(0,0)"/>
<path d="" fill="#007FFF" transform="translate(0,0)"/>
<path d="" fill="#3366CC" transform="translate(0,0)"/>
<path d="" fill="#0000FF" transform="translate(0,0)"/>
<path d="" fill="#5555FF" transform="translate(0,0)"/>
<path d="" fill="#0000FF" transform="translate(0,0)"/>
<path d="" fill="#0000FF" transform="translate(0,0)"/>
<path d="" fill="#5555FF" transform="translate(0,0)"/>
<path d="" fill="#0000FF" transform="translate(0,0)"/>
<path d="" fill="#007FFF" transform="translate(0,0)"/>
<path d="" fill="#0000FF" transform="translate(0,0)"/>
<path d="" fill="#0000FF" transform="translate(0,0)"/>
<path d="" fill="#007FFF" transform="translate(0,0)"/>
<path d="" fill="#007FFF" transform="translate(0,0)"/>
<path d="" fill="#0000FF" transform="translate(0,0)"/>
<path d="" fill="#0000FF" transform="translate(0,0)"/>
<path d="" fill="#007FFF" transform="translate(0,0)"/>
<path d="" fill="#0000FF" transform="translate(0,0)"/>
<path d="" fill="#007FFF" transform="translate(0,0)"/>
<path d="" fill="#007FFF" transform="translate(0,0)"/>
<path d="" fill="#0000FF" transform="translate(0,0)"/>
<path d="" fill="#0000FF" transform="translate(0,0)"/>
<path d="" fill="#0000FF" transform="translate(0,0)"/>
<path d="" fill="#0000FF" transform="translate(0,0)"/>
<path d="" fill="#0000FF" transform="translate(0,0)"/>
<path d="" fill="#0000FF" transform="translate(0,0)"/>
<path d="" fill="#0000FF" transform="translate(0,0)"/>
<path d="" fill="#007FFF" transform="translate(0,0)"/>
<path d="" fill="#0000FF" transform="translate(0,0)"/>
<path d="" fill="#0000FF" transform="translate(0,0)"/>
<path d="" fill="#5555FF" transform="translate(0,0)"/>
<path d="" fill="#0000FF" transform="translate(0,0)"/>
<path d="" fill="#0000FF" transform="translate(0,0)"/>
<path d="" fill="#0000FF" transform="translate(0,0)"/>
<path d="" fill="#0000FF" transform="translate(0,0)"/>
<path d="" fill="#0000FF" transform="translate(0,0)"/>
<path d="" fill="#0000FF" transform="translate(0,0)"/>
<path d="" fill="#007F7F" transform="translate(0,0)"/>
<path d="" fill="#007F7F" transform="translate(0,0)"/>
<path d="" fill="#0000FF" transform="translate(0,0)"/>
<path d="" fill="#007FFF" transform="translate(0,0)"/>
<path d="" fill="#0000FF" transform="translate(0,0)"/>
<path d="" fill="#0000FF" transform="translate(0,0)"/>
<path d="" fill="#0000FF" transform="translate(0,0)"/>
<path d="" fill="#007FFF" transform="translate(0,0)"/>
<path d="" fill="#007FFF" transform="translate(0,0)"/>
</svg>
